<svg width="16" height="16" viewBox="0 0 16 16" fill="none" xmlns="http://www.w3.org/2000/svg">
<path d="M10.0498 12.6333L9.48317 14.25C9.43873 14.3722 9.36095 14.4722 9.24984 14.55C9.13873 14.6278 9.0165 14.6666 8.88317 14.6666C8.66095 14.6666 8.48039 14.575 8.3415 14.3916C8.20262 14.2083 8.17762 14.0055 8.2665 13.7833L10.7998 7.08331C10.8554 6.96109 10.9387 6.86109 11.0498 6.78331C11.1609 6.70553 11.2832 6.66665 11.4165 6.66665H11.9165C12.0498 6.66665 12.1721 6.70553 12.2832 6.78331C12.3943 6.86109 12.4776 6.96109 12.5332 7.08331L15.0665 13.8C15.1554 14.0111 15.1332 14.2083 14.9998 14.3916C14.8665 14.575 14.6887 14.6666 14.4665 14.6666C14.3221 14.6666 14.1971 14.6278 14.0915 14.55C13.9859 14.4722 13.9054 14.3666 13.8498 14.2333L13.2832 12.6333H10.0498ZM6.03317 9.31665L3.13317 12.2C3.01095 12.3222 2.85817 12.3861 2.67484 12.3916C2.4915 12.3972 2.33317 12.3333 2.19984 12.2C2.07762 12.0778 2.0165 11.9222 2.0165 11.7333C2.0165 11.5444 2.07762 11.3889 2.19984 11.2666L5.09984 8.36665C4.71095 7.97776 4.35817 7.53331 4.0415 7.03331C3.72484 6.53331 3.43317 5.96665 3.1665 5.33331H4.5665C4.78873 5.76665 5.01095 6.14442 5.23317 6.46665C5.45539 6.78887 5.72206 7.11109 6.03317 7.43331C6.39984 7.06665 6.78039 6.55276 7.17484 5.89165C7.56928 5.23054 7.8665 4.59998 8.0665 3.99998H1.33317C1.14428 3.99998 0.985948 3.93609 0.858171 3.80831C0.730393 3.68054 0.666504 3.5222 0.666504 3.33331C0.666504 3.14442 0.730393 2.98609 0.858171 2.85831C0.985948 2.73054 1.14428 2.66665 1.33317 2.66665H5.33317V1.99998C5.33317 1.81109 5.39706 1.65276 5.52484 1.52498C5.65262 1.3972 5.81095 1.33331 5.99984 1.33331C6.18873 1.33331 6.34706 1.3972 6.47484 1.52498C6.60262 1.65276 6.6665 1.81109 6.6665 1.99998V2.66665H10.6665C10.8554 2.66665 11.0137 2.73054 11.1415 2.85831C11.2693 2.98609 11.3332 3.14442 11.3332 3.33331C11.3332 3.5222 11.2693 3.68054 11.1415 3.80831C11.0137 3.93609 10.8554 3.99998 10.6665 3.99998H9.39984C9.1665 4.79998 8.8165 5.6222 8.34984 6.46665C7.88317 7.31109 7.42206 7.95553 6.9665 8.39998L8.5665 10.0333L8.0665 11.4L6.03317 9.31665ZM10.4665 11.4666H12.8665L11.6665 8.06665L10.4665 11.4666Z" fill="#00687D"/>
</svg>
