<svg xmlns="http://www.w3.org/2000/svg" width="24" height="24" viewBox="0 0 24 24" fill="none">
<path d="M21.9783 18.9129L19.9283 16.8629V11.9819H15.0413L11.0413 7.98186H19.9283V6.0716H9.13704L6.86204 3.7966H19.9283C20.558 3.7966 21.0945 4.01835 21.538 4.46185C21.9815 4.90535 22.2033 5.44194 22.2033 6.0716V17.9281C22.2033 18.1068 22.1866 18.2793 22.1533 18.4456C22.12 18.6118 22.0616 18.7675 21.9783 18.9129ZM9.10229 11.9819H4.07179V17.9281H15.0543L9.10229 11.9819ZM4.07179 20.2031C3.44213 20.2031 2.90554 19.9814 2.46204 19.5379C2.01854 19.0944 1.79679 18.5578 1.79679 17.9281V6.0716C1.79679 5.47377 2.00163 4.9581 2.41129 4.5246C2.82079 4.0911 3.31846 3.85444 3.90429 3.81461L6.16154 6.0716H4.07179V7.98186H5.10229L1.35004 4.22986C1.14204 4.02186 1.03904 3.77436 1.04104 3.48736C1.04304 3.20036 1.14821 2.95285 1.35654 2.74485C1.56504 2.53702 1.81254 2.43311 2.09904 2.43311C2.38554 2.43311 2.63279 2.53702 2.84079 2.74485L21.3065 21.2106C21.5145 21.4194 21.6185 21.6629 21.6185 21.9411C21.6185 22.2194 21.5144 22.4626 21.306 22.6706C21.0975 22.8784 20.85 22.9824 20.5635 22.9824C20.277 22.9824 20.0298 22.8784 19.8218 22.6706L17.3293 20.2031H4.07179Z" fill="#1B1B1B"/>
</svg>
