<svg xmlns="http://www.w3.org/2000/svg" width="24" height="24" viewBox="0 0 24 24" fill="none">
<path d="M18.0431 22.4426C16.5793 22.4426 15.335 21.9334 14.3101 20.9149C13.2853 19.8964 12.7729 18.6552 12.7729 17.1914C12.7729 15.7277 13.2853 14.4866 14.3101 13.4681C15.335 12.4496 16.5793 11.9404 18.0431 11.9404C19.4941 11.9404 20.7279 12.4524 21.7444 13.4764C22.7609 14.5002 23.2691 15.7385 23.2691 17.1914C23.2691 18.6442 22.7609 19.8826 21.7444 20.9066C20.7279 21.9306 19.4941 22.4426 18.0431 22.4426ZM4.07187 17.9284V9.93438V10.2176V6.07188V17.9284ZM4.07187 7.98213H19.9284V6.07188H4.07187V7.98213ZM4.07187 20.2034C3.44221 20.2034 2.90562 19.9816 2.46213 19.5381C2.01863 19.0946 1.79688 18.558 1.79688 17.9284V6.07188C1.79688 5.44221 2.01863 4.90562 2.46213 4.46212C2.90562 4.01862 3.44221 3.79688 4.07187 3.79688H19.9284C20.558 3.79688 21.0946 4.01862 21.5381 4.46212C21.9816 4.90562 22.2034 5.44221 22.2034 6.07188V9.74088C22.2034 10.0847 22.0553 10.3395 21.7591 10.5051C21.463 10.6706 21.1533 10.6787 20.8301 10.5294C20.3968 10.3374 19.9369 10.1902 19.4504 10.0879C18.9639 9.98554 18.465 9.93438 17.9539 9.93438C16.972 9.93438 16.0493 10.1175 15.1856 10.4839C14.3221 10.8502 13.5617 11.3496 12.9044 11.9821H4.07187V17.9284H10.2164C10.5355 17.9284 10.805 18.0381 11.0246 18.2576C11.2441 18.4773 11.3539 18.7467 11.3539 19.0659C11.3539 19.385 11.2441 19.6545 11.0246 19.8741C10.805 20.0936 10.5355 20.2034 10.2164 20.2034H4.07187ZM18.5719 16.9749V14.5419C18.5719 14.3974 18.5176 14.271 18.4091 14.1626C18.3005 14.0543 18.1738 14.0001 18.0291 14.0001C17.8845 14.0001 17.7571 14.0549 17.6471 14.1644C17.5371 14.274 17.4821 14.4019 17.4821 14.5479V16.9306C17.4821 17.0838 17.5101 17.23 17.5661 17.3694C17.6221 17.5085 17.7061 17.6338 17.8181 17.7451L19.4269 19.3539C19.5347 19.4619 19.6613 19.5149 19.8066 19.5129C19.952 19.5109 20.0786 19.4556 20.1866 19.3471C20.2945 19.2386 20.3484 19.112 20.3484 18.9671C20.3484 18.8225 20.2945 18.6961 20.1866 18.5881L18.5719 16.9749Z" fill="#1B1B1B"/>
</svg>
