<svg xmlns="http://www.w3.org/2000/svg" width="24" height="24" viewBox="0 0 24 24" fill="none">
<path d="M4.07187 7.98213H19.9284V6.07188H4.07187V7.98213ZM1.79688 6.07188C1.79688 5.44221 2.01863 4.90562 2.46213 4.46212C2.90562 4.01862 3.44221 3.79688 4.07187 3.79688H19.9284C20.558 3.79688 21.0946 4.01862 21.5381 4.46212C21.9816 4.90562 22.2034 5.44221 22.2034 6.07188V10.8446C22.2034 11.1638 22.0936 11.4332 21.8741 11.6529C21.6545 11.8724 21.385 11.9821 21.0659 11.9821H4.07187V17.9284H7.05837C7.37754 17.9284 7.64687 18.0381 7.86637 18.2576C8.08604 18.4773 8.19587 18.7467 8.19587 19.0659C8.19587 19.385 8.08604 19.6545 7.86637 19.8741C7.64687 20.0936 7.37754 20.2034 7.05837 20.2034H4.07187C3.44221 20.2034 2.90562 19.9816 2.46213 19.5381C2.01863 19.0946 1.79688 18.558 1.79688 17.9284V6.07188ZM4.07187 6.07188V17.9284V14.7316V16.2056V6.07188ZM15.0399 21.7436C14.8905 21.7436 14.7485 21.7146 14.6139 21.6566C14.4794 21.5986 14.3541 21.5137 14.2381 21.4019L11.4839 18.6414C11.2765 18.4342 11.1697 18.1761 11.1634 17.8671C11.157 17.5583 11.2639 17.294 11.4839 17.0741C11.691 16.8668 11.9491 16.7641 12.2581 16.7661C12.567 16.7681 12.8313 16.8728 13.0511 17.0801L15.0399 19.0306L19.8154 14.2551C20.0352 14.0351 20.2996 13.9283 20.6086 13.9346C20.9175 13.941 21.1819 14.0541 21.4019 14.2741C21.609 14.494 21.7158 14.7551 21.7221 15.0576C21.7285 15.3603 21.6217 15.6215 21.4019 15.8414L15.8414 21.4019C15.7294 21.5137 15.6051 21.5986 15.4686 21.6566C15.332 21.7146 15.189 21.7436 15.0399 21.7436Z" fill="#1B1B1B"/>
</svg>
