<svg xmlns="http://www.w3.org/2000/svg" width="24" height="24" viewBox="0 0 24 24" fill="none">
<path d="M4.07187 20.2034C3.44221 20.2034 2.90562 19.9816 2.46213 19.5381C2.01863 19.0946 1.79688 18.558 1.79688 17.9284V6.07187C1.79688 5.44221 2.01863 4.90562 2.46213 4.46212C2.90562 4.01862 3.44221 3.79688 4.07187 3.79688H19.9284C20.558 3.79688 21.0946 4.01862 21.5381 4.46212C21.9816 4.90562 22.2034 5.44221 22.2034 6.07187V17.9284C22.2034 18.558 21.9816 19.0946 21.5381 19.5381C21.0946 19.9816 20.558 20.2034 19.9284 20.2034H4.07187ZM19.9284 8.25713L12.6029 12.8784C12.5084 12.9364 12.4091 12.9799 12.3051 13.0089C12.2011 13.0379 12.0995 13.0524 12.0001 13.0524C11.9008 13.0524 11.7991 13.0379 11.6951 13.0089C11.5911 12.9799 11.4919 12.9364 11.3974 12.8784L4.07187 8.25713V17.9284H19.9284V8.25713ZM12.0001 11.0719L19.9284 6.07187H4.07187L12.0001 11.0719ZM4.07187 8.53112V6.93287V6.96062V6.07187V6.96163V6.94012V8.53112Z" fill="#1B1B1B"/>
</svg>
