<svg width="192" height="28" viewBox="0 0 192 28" fill="none" xmlns="http://www.w3.org/2000/svg">
<path d="M80.1143 5.80909C80.6501 5.80909 81.2141 6.00649 81.6371 6.37308C81.7217 6.45768 81.8345 6.45768 81.9191 6.37308L82.7932 5.4707C82.8778 5.3861 82.8778 5.2451 82.7932 5.1605C82.0319 4.45552 81.2141 4.11713 80.0861 4.11713C77.8302 4.11713 76.0254 5.92189 76.0254 8.17784C76.0254 10.4338 77.8302 12.2104 80.0861 12.2104C81.0731 12.2104 82.0601 11.872 82.8214 11.1106C82.906 11.026 82.906 10.885 82.8214 10.8004L81.9473 9.86981C81.8909 9.78521 81.7217 9.78521 81.6653 9.86981C81.2705 10.2082 80.6783 10.4056 80.1707 10.4056C78.9017 10.4056 77.9711 9.36222 77.9711 8.12144C77.9147 6.88067 78.8453 5.80909 80.1143 5.80909Z" fill="black"/>
<path d="M90.0125 4.11713C87.7565 4.11713 85.98 5.92189 85.98 8.17784C85.98 10.4338 87.7565 12.2104 90.0125 12.2104C92.2685 12.2104 94.045 10.4338 94.045 8.17784C94.0732 5.92189 92.2685 4.11713 90.0125 4.11713ZM90.0125 10.4056C88.7999 10.4056 87.7847 9.39042 87.7847 8.17784C87.7847 6.93707 88.7999 5.92189 90.0125 5.92189C91.2533 5.92189 92.2685 6.93707 92.2685 8.17784C92.2685 9.39042 91.2533 10.4056 90.0125 10.4056Z" fill="black"/>
<path d="M102.279 10.4338H99.572V4.45551C99.572 4.34272 99.4592 4.22992 99.3464 4.22992H98.021C97.9082 4.22992 97.7954 4.34272 97.7954 4.45551V11.872C97.7954 11.9848 97.88 12.0976 98.021 12.0976H102.279C102.392 12.0976 102.505 11.9848 102.505 11.872V10.6594C102.477 10.5466 102.392 10.4338 102.279 10.4338Z" fill="black"/>
<path d="M109.583 4.11713C107.327 4.11713 105.55 5.92189 105.55 8.17784C105.55 10.4338 107.327 12.2104 109.583 12.2104C111.839 12.2104 113.615 10.4338 113.615 8.17784C113.644 5.92189 111.839 4.11713 109.583 4.11713ZM109.583 10.4056C108.37 10.4056 107.355 9.39042 107.355 8.17784C107.355 6.93707 108.37 5.92189 109.583 5.92189C110.824 5.92189 111.839 6.93707 111.839 8.17784C111.839 9.39042 110.824 10.4056 109.583 10.4056Z" fill="black"/>
<path d="M121.962 8.91102C122.949 8.51623 123.626 7.69845 123.626 6.65507C123.626 5.3297 122.526 4.22992 121.173 4.22992H117.817C117.704 4.22992 117.591 4.34272 117.591 4.45551V11.872C117.591 11.9848 117.676 12.0976 117.817 12.0976H119.142C119.255 12.0976 119.368 11.9848 119.368 11.872V8.99562H120.129L121.737 11.9566C121.765 12.013 121.821 12.0694 121.906 12.0694H123.4C123.598 12.0694 123.682 11.9002 123.598 11.7592L121.962 8.91102ZM121.032 7.58565H119.368V5.83729H121.032C121.483 5.83729 121.878 6.23208 121.878 6.68327C121.878 7.16266 121.483 7.58565 121.032 7.58565Z" fill="black"/>
<path d="M141.702 4.22992H138.966C138.854 4.22992 138.769 4.34272 138.769 4.45551V11.872C138.769 11.9848 138.854 12.0976 138.966 12.0976H141.702C143.873 12.0976 145.65 10.3492 145.65 8.14964C145.65 5.97828 143.873 4.22992 141.702 4.22992ZM141.589 10.4338H140.517V5.86549H141.589C142.858 5.86549 143.789 6.85246 143.789 8.12144C143.789 9.41861 142.858 10.4338 141.589 10.4338Z" fill="black"/>
<path d="M153.179 4.11713C150.923 4.11713 149.146 5.92189 149.146 8.17784C149.146 10.4338 150.923 12.2104 153.179 12.2104C155.407 12.2104 157.212 10.4338 157.212 8.17784C157.212 5.92189 155.407 4.11713 153.179 4.11713ZM153.179 10.4056C151.966 10.4056 150.951 9.39042 150.951 8.17784C150.951 6.93707 151.966 5.92189 153.179 5.92189C154.42 5.92189 155.407 6.93707 155.407 8.17784C155.407 9.39042 154.42 10.4056 153.179 10.4056Z" fill="black"/>
<path d="M131.353 4.22992C131.325 4.17353 131.24 4.11713 131.155 4.11713H131.043C130.958 4.11713 130.873 4.17353 130.845 4.22992L127.348 11.7874C127.292 11.9284 127.377 12.0694 127.546 12.0694H128.787C129.012 12.0694 129.125 12.013 129.181 11.7874L129.576 10.885H132.622L133.017 11.7592C133.129 12.013 133.186 12.0412 133.411 12.0412H134.652C134.821 12.0412 134.906 11.9002 134.849 11.7592L131.353 4.22992ZM130.084 9.58781L131.099 7.24726L132.142 9.58781H130.084Z" fill="black"/>
<path d="M71.4857 0.0563965H71.1191V27.9738H71.4857V0.0563965Z" fill="black"/>
<path d="M75.9976 23.2363H76.6461V19.3166H75.9976V18.5552H78.3381C78.7611 18.5552 79.1277 18.5834 79.4661 18.6962C80.5095 19.0064 81.2144 19.9369 81.2144 21.2623C81.2144 22.5313 80.5659 23.4619 79.5507 23.8003C79.1841 23.9413 78.8175 23.9695 78.3663 23.9695H76.0258V23.2363H75.9976ZM78.3099 23.1799C78.6483 23.1799 78.9303 23.1517 79.1841 23.0389C79.8045 22.7851 80.1993 22.1647 80.1993 21.2623C80.1993 20.3599 79.7763 19.7114 79.1559 19.4858C78.8739 19.373 78.6201 19.373 78.3099 19.373H77.6613V23.1799H78.3099Z" fill="black"/>
<path d="M83.6394 19.9933C84.7673 19.9933 85.3595 20.8111 85.3595 21.8263C85.3595 21.9391 85.3313 22.1647 85.3313 22.1647H82.6524C82.7088 22.8697 83.2446 23.2363 83.8086 23.2363C84.429 23.2363 84.9365 22.8133 84.9365 22.8133L85.3031 23.4901C85.3031 23.4901 84.7109 24.0259 83.724 24.0259C82.4268 24.0259 81.6372 23.0953 81.6372 21.9955C81.6936 20.8393 82.4832 19.9933 83.6394 19.9933ZM84.3726 21.6007C84.3444 21.0649 84.0342 20.7547 83.6112 20.7547C83.1036 20.7547 82.7652 21.0931 82.6806 21.6007H84.3726Z" fill="black"/>
<path d="M86.347 24.759V20.9803C86.347 20.8675 86.2906 20.8111 86.1778 20.8111H85.7266V20.0779H86.7135C87.0801 20.0779 87.1929 20.2471 87.1929 20.4445V20.4727C87.1929 20.5573 87.1929 20.6419 87.1929 20.6419H87.2211C87.2211 20.6419 87.5595 19.9933 88.4619 19.9933C89.5053 19.9933 90.1821 20.8111 90.1821 22.0237C90.1821 23.2645 89.4207 24.0541 88.4055 24.0541C87.6441 24.0541 87.2775 23.5183 87.2775 23.5183H87.2493C87.2493 23.5183 87.2775 23.6593 87.2775 23.8567V24.7872H87.8415V25.5204H85.7548V24.7872H86.347V24.759ZM88.2363 23.2363C88.7721 23.2363 89.2233 22.8133 89.2233 22.0237C89.2233 21.2905 88.8285 20.8111 88.2645 20.8111C87.7569 20.8111 87.2775 21.1777 87.2775 22.0237C87.2775 22.6441 87.6159 23.2363 88.2363 23.2363Z" fill="black"/>
<path d="M92.6914 21.5725H92.9452V21.4315C92.9452 20.9239 92.635 20.7547 92.2402 20.7547C91.648 20.7547 91.1404 21.1213 91.1404 21.1213L90.7738 20.4445C90.7738 20.4445 91.366 19.9651 92.3248 19.9651C93.3682 19.9651 93.9321 20.5009 93.9321 21.4879V23.0389C93.9321 23.1517 93.9885 23.2081 94.1013 23.2081H94.4397V23.9413H93.5374C93.1708 23.9413 93.0298 23.7439 93.0298 23.5183V23.4619C93.0298 23.3491 93.058 23.2645 93.058 23.2645H93.0298C93.0298 23.2645 92.6914 23.9977 91.8172 23.9977C91.1686 23.9977 90.52 23.6029 90.52 22.8133C90.52 21.6853 92.071 21.5725 92.6914 21.5725ZM92.071 23.3491C92.6068 23.3491 92.9734 22.7851 92.9734 22.3057V22.1647H92.8042C92.4376 22.1647 91.507 22.2211 91.507 22.8133C91.507 23.0953 91.7044 23.3491 92.071 23.3491Z" fill="black"/>
<path d="M94.8065 23.2363H95.3705V20.9803C95.3705 20.8675 95.3141 20.8111 95.2013 20.8111H94.7783V20.0779H95.7935C96.1319 20.0779 96.3011 20.2189 96.3011 20.5573V20.7829C96.3011 20.9239 96.2729 21.0367 96.2729 21.0367H96.3011C96.4703 20.4727 96.9497 20.0497 97.5419 20.0497C97.6265 20.0497 97.7111 20.0779 97.7111 20.0779V21.0367C97.7111 21.0367 97.5983 21.0085 97.4855 21.0085C96.6959 21.0085 96.3575 21.6853 96.3575 22.4185V23.2645H96.9215V23.9977H94.8347V23.2363H94.8065Z" fill="black"/>
<path d="M98.4442 20.8111H97.8521V20.0779H98.4724V19.0063H99.403V20.0779H100.277V20.8111H99.403V22.4467C99.403 23.0953 99.9106 23.2081 100.193 23.2081C100.305 23.2081 100.362 23.2081 100.362 23.2081V23.9976C100.362 23.9976 100.249 24.0258 100.052 24.0258C99.5158 24.0258 98.4442 23.8566 98.4442 22.5595V20.8111Z" fill="black"/>
<path d="M100.785 23.2363H101.349V20.9521C101.349 20.8393 101.293 20.7829 101.18 20.7829H100.757V20.0497H101.772C102.11 20.0497 102.28 20.2189 102.28 20.4727V20.6419C102.28 20.7265 102.251 20.8111 102.251 20.8111H102.28C102.477 20.4163 102.956 19.937 103.605 19.937C104.141 19.937 104.536 20.1907 104.677 20.7829H104.705C104.93 20.3317 105.438 19.937 106.058 19.937C106.848 19.937 107.299 20.3881 107.299 21.4033V23.1799H107.863V23.9131H106.312V21.6007C106.312 21.1495 106.228 20.8111 105.776 20.8111C105.128 20.8111 104.789 21.4597 104.789 22.1929V23.1799H105.353V23.9131H103.831V21.6007C103.831 21.1777 103.774 20.8111 103.295 20.8111C102.618 20.8111 102.308 21.5443 102.308 22.2211V23.1517H102.872V23.8849H100.785V23.2363Z" fill="black"/>
<path d="M110.119 19.9933C111.247 19.9933 111.839 20.8111 111.839 21.8263C111.839 21.9391 111.811 22.1647 111.811 22.1647H109.132C109.188 22.8697 109.724 23.2363 110.288 23.2363C110.908 23.2363 111.416 22.8133 111.416 22.8133L111.783 23.4901C111.783 23.4901 111.19 24.0259 110.203 24.0259C108.906 24.0259 108.117 23.0953 108.117 21.9955C108.145 20.8393 108.963 19.9933 110.119 19.9933ZM110.852 21.6007C110.824 21.0649 110.514 20.7547 110.091 20.7547C109.583 20.7547 109.245 21.0931 109.16 21.6007H110.852Z" fill="black"/>
<path d="M112.318 23.2363H112.882V20.9803C112.882 20.8675 112.826 20.8111 112.713 20.8111H112.29V20.0779H113.305C113.644 20.0779 113.813 20.2471 113.813 20.5009V20.6701C113.813 20.7547 113.785 20.8393 113.785 20.8393H113.813C113.869 20.7265 114.264 19.9651 115.251 19.9651C116.069 19.9651 116.548 20.4163 116.548 21.4315V23.2081H117.112V23.9413H115.589V21.6289C115.589 21.1495 115.448 20.8393 114.969 20.8393C114.264 20.8393 113.869 21.5161 113.869 22.1929V23.2081H114.433V23.9413H112.346V23.2363H112.318Z" fill="black"/>
<path d="M117.873 20.8111H117.281V20.0779H117.902V19.0063H118.832V20.0779H119.706V20.8111H118.832V22.4467C118.832 23.0953 119.34 23.2081 119.622 23.2081C119.735 23.2081 119.791 23.2081 119.791 23.2081V23.9976C119.791 23.9976 119.678 24.0258 119.481 24.0258C118.945 24.0258 117.873 23.8566 117.873 22.5595V20.8111Z" fill="black"/>
<path d="M124.021 19.9933C125.205 19.9933 126.164 20.8393 126.164 22.0237C126.164 23.2081 125.205 24.0541 124.021 24.0541C122.837 24.0541 121.878 23.2081 121.878 22.0237C121.878 20.8393 122.837 19.9933 124.021 19.9933ZM124.021 23.2363C124.641 23.2363 125.177 22.7569 125.177 22.0237C125.177 21.3187 124.641 20.8111 124.021 20.8111C123.401 20.8111 122.865 21.3187 122.865 22.0237C122.865 22.7569 123.401 23.2363 124.021 23.2363Z" fill="black"/>
<path d="M126.616 23.2363H127.18V20.8111H126.587V20.0779H127.18V19.9087C127.18 18.6398 128.195 18.4988 128.702 18.4988C128.928 18.4988 129.097 18.527 129.097 18.527V19.3166C129.097 19.3166 128.984 19.2884 128.787 19.2884C128.561 19.2884 128.138 19.3448 128.138 19.9087V20.1061H129.013V20.8393H128.138V23.2645H128.787V23.9977H126.616V23.2363Z" fill="black"/>
<path d="M131.212 23.2363H131.861V19.3166H131.212V18.5552H133.524V19.3166H132.876V20.8675H135.329V19.3166H134.68V18.5552H136.993V19.3166H136.344V23.2081H136.993V23.9413H134.68V23.2081H135.329V21.6571H132.876V23.2081H133.524V23.9413H131.212V23.2363Z" fill="black"/>
<path d="M137.98 20.8111H137.388V20.0779H138.967V22.4185C138.967 22.8697 139.08 23.2081 139.587 23.2081C140.264 23.2081 140.659 22.5313 140.659 21.8263V20.8111H140.067V20.0779H141.618V23.0671C141.618 23.1799 141.674 23.2363 141.787 23.2363H142.153V23.9413H141.195C140.856 23.9413 140.687 23.7721 140.687 23.5183V23.3773C140.687 23.2645 140.687 23.2081 140.687 23.2081H140.659C140.602 23.3491 140.208 24.0541 139.249 24.0541C138.459 24.0541 137.98 23.6311 137.98 22.5877V20.8111Z" fill="black"/>
<path d="M142.548 23.2363H143.112V20.9521C143.112 20.8393 143.056 20.7829 142.943 20.7829H142.52V20.0497H143.535C143.874 20.0497 144.043 20.2189 144.043 20.4727V20.6419C144.043 20.7265 144.015 20.8111 144.015 20.8111H144.043C144.24 20.4163 144.72 19.937 145.368 19.937C145.904 19.937 146.299 20.1907 146.44 20.7829H146.468C146.694 20.3317 147.201 19.937 147.822 19.937C148.611 19.937 149.062 20.3881 149.062 21.4033V23.1799H149.626V23.9131H148.104V21.6007C148.104 21.1495 148.019 20.8111 147.568 20.8111C146.919 20.8111 146.581 21.4597 146.581 22.1929V23.1799H147.145V23.9131H145.622V21.6007C145.622 21.1777 145.566 20.8111 145.086 20.8111C144.409 20.8111 144.099 21.5443 144.099 22.2211V23.1517H144.663V23.8849H142.576V23.2363H142.548Z" fill="black"/>
<path d="M152.051 21.5725H152.305V21.4315C152.305 20.9239 151.995 20.7547 151.6 20.7547C151.008 20.7547 150.501 21.1213 150.501 21.1213L150.134 20.4445C150.134 20.4445 150.726 19.9651 151.685 19.9651C152.728 19.9651 153.292 20.5009 153.292 21.4879V23.0389C153.292 23.1517 153.349 23.2081 153.461 23.2081H153.8V23.9413H152.841C152.474 23.9413 152.333 23.7439 152.333 23.5183V23.4619C152.333 23.3491 152.362 23.2645 152.362 23.2645H152.333C152.333 23.2645 151.995 23.9977 151.121 23.9977C150.472 23.9977 149.824 23.6029 149.824 22.8133C149.852 21.6853 151.403 21.5725 152.051 21.5725ZM151.403 23.3491C151.939 23.3491 152.305 22.7851 152.305 22.3057V22.1647H152.136C151.769 22.1647 150.839 22.2211 150.839 22.8133C150.839 23.0953 151.036 23.3491 151.403 23.3491Z" fill="black"/>
<path d="M154.138 23.2363H154.702V20.9803C154.702 20.8675 154.646 20.8111 154.533 20.8111H154.11V20.0779H155.125C155.463 20.0779 155.633 20.2471 155.633 20.5009V20.6701C155.633 20.7547 155.604 20.8393 155.604 20.8393H155.633C155.689 20.7265 156.084 19.9651 157.071 19.9651C157.889 19.9651 158.368 20.4163 158.368 21.4315V23.2081H158.932V23.9413H157.409V21.6289C157.409 21.1495 157.268 20.8393 156.789 20.8393C156.084 20.8393 155.689 21.5161 155.689 22.1929V23.2081H156.253V23.9413H154.166V23.2363H154.138Z" fill="black"/>
<path d="M161.977 22.2211V22.6159C161.977 22.9543 162.429 23.1799 162.936 23.1799C163.472 23.1799 163.867 22.9543 163.867 22.5031C163.867 21.9673 163.246 21.7699 162.626 21.5443C161.893 21.2623 161.188 20.9521 161.188 19.9651C161.188 18.8654 162.062 18.4706 162.993 18.4706C163.839 18.4706 164.713 18.809 164.713 19.4294V20.1343H163.81V19.7678C163.81 19.4858 163.416 19.3448 162.993 19.3448C162.541 19.3448 162.175 19.514 162.175 19.9369C162.175 20.4445 162.682 20.6137 163.246 20.8111C164.064 21.0931 164.854 21.4315 164.854 22.4467C164.854 23.5465 163.923 24.0541 162.908 24.0541C162.006 24.0541 161.047 23.6593 161.047 22.8415V22.2211H161.977Z" fill="black"/>
<path d="M167.307 19.9933C168.435 19.9933 169.028 20.8111 169.028 21.8263C169.028 21.9391 168.999 22.1647 168.999 22.1647H166.32C166.377 22.8697 166.913 23.2363 167.477 23.2363C168.097 23.2363 168.605 22.8133 168.605 22.8133L168.971 23.4901C168.971 23.4901 168.379 24.0259 167.392 24.0259C166.095 24.0259 165.305 23.0953 165.305 21.9955C165.333 20.8393 166.151 19.9933 167.307 19.9933ZM168.041 21.6007C168.012 21.0649 167.702 20.7547 167.279 20.7547C166.772 20.7547 166.433 21.0931 166.349 21.6007H168.041Z" fill="black"/>
<path d="M169.535 23.2363H170.099V20.9803C170.099 20.8675 170.042 20.8111 169.93 20.8111H169.479V20.0779H170.494C170.832 20.0779 171.001 20.2189 171.001 20.5573V20.7829C171.001 20.9239 170.973 21.0367 170.973 21.0367H171.001C171.17 20.4727 171.65 20.0497 172.242 20.0497C172.327 20.0497 172.411 20.0779 172.411 20.0779V21.0367C172.411 21.0367 172.298 21.0085 172.186 21.0085C171.396 21.0085 171.058 21.6853 171.058 22.4185V23.2645H171.622V23.9977H169.535V23.2363Z" fill="black"/>
<path d="M172.496 20.0779H174.357V20.8111H173.934L174.611 22.7287C174.696 22.9261 174.724 23.1517 174.724 23.1517H174.752C174.752 23.1517 174.78 22.9261 174.837 22.7287L175.513 20.8111H175.062V20.0779H176.923V20.8111H176.472L175.288 23.9695H174.188L173.004 20.8111H172.524V20.0779H172.496Z" fill="black"/>
<path d="M177.177 23.2363H177.741V20.8111H177.149V20.0779H178.728V23.2363H179.292V23.9695H177.205V23.2363H177.177ZM177.741 18.5552H178.728V19.4294H177.741V18.5552Z" fill="black"/>
<path d="M181.689 19.9933C182.337 19.9933 183.268 20.2471 183.268 20.9239V21.4597H182.422V21.2059C182.422 20.9521 182.027 20.8393 181.689 20.8393C180.984 20.8393 180.561 21.3187 180.561 22.0237C180.561 22.8133 181.125 23.2645 181.773 23.2645C182.309 23.2645 182.76 22.9543 182.986 22.7851L183.324 23.4619C183.07 23.7157 182.45 24.0541 181.717 24.0541C180.589 24.0541 179.574 23.2927 179.574 22.0237C179.602 20.8675 180.476 19.9933 181.689 19.9933Z" fill="black"/>
<path d="M185.665 19.9933C186.793 19.9933 187.385 20.8111 187.385 21.8263C187.385 21.9391 187.357 22.1647 187.357 22.1647H184.678C184.735 22.8697 185.27 23.2363 185.834 23.2363C186.455 23.2363 186.962 22.8133 186.962 22.8133L187.329 23.4901C187.329 23.4901 186.737 24.0259 185.75 24.0259C184.453 24.0259 183.663 23.0953 183.663 21.9955C183.691 20.8393 184.509 19.9933 185.665 19.9933ZM186.398 21.6007C186.37 21.0649 186.06 20.7547 185.637 20.7547C185.129 20.7547 184.791 21.0931 184.706 21.6007H186.398Z" fill="black"/>
<path d="M187.808 22.6723H188.626V22.8979C188.626 23.1517 188.992 23.2927 189.387 23.2927C189.782 23.2927 190.036 23.1517 190.036 22.8979C190.036 22.5595 189.669 22.4749 189.162 22.3057C188.598 22.1083 187.949 21.8545 187.949 21.0931C187.949 20.2753 188.767 19.9933 189.472 19.9933C190.036 19.9933 190.882 20.2189 190.882 20.8111V21.3187H190.064V21.0931C190.064 20.8957 189.838 20.7829 189.5 20.7829C189.19 20.7829 188.936 20.8957 188.936 21.1213C188.936 21.4315 189.303 21.5725 189.754 21.7135C190.346 21.9109 191.051 22.1365 191.051 22.8979C191.051 23.6875 190.318 24.0823 189.415 24.0823C188.71 24.0823 187.836 23.7721 187.836 23.1517V22.6723H187.808Z" fill="black"/>
<path d="M66.6635 14.4381C66.6635 14.2971 66.6635 14.1561 66.6635 14.0151C66.6635 6.31666 60.4032 0.0563965 52.7048 0.0563965C45.0064 0.0563965 38.7461 6.31666 38.7461 14.0151C38.7461 14.1561 38.7461 14.2971 38.7461 14.4381L52.7048 20.1062L66.6635 14.4381Z" fill="#FFD200"/>
<path d="M52.705 20.9521L52.564 20.8957L38.8027 15.3123C39.4513 22.4185 45.4296 28.002 52.705 28.002C59.9805 28.002 65.9588 22.4467 66.6073 15.3123L52.705 20.9521Z" fill="#232C67"/>
<path d="M47.7418 21.8546C48.2212 21.8546 48.5596 21.9956 48.8697 22.2775C48.9261 22.3057 48.9261 22.3621 48.8697 22.4185L48.5032 22.8133C48.475 22.8415 48.4186 22.8415 48.3904 22.8133C48.2212 22.6441 47.9956 22.5595 47.77 22.5595C47.2342 22.5595 46.8394 23.0107 46.8394 23.5183C46.8394 24.0259 47.2342 24.4771 47.77 24.4771C47.9956 24.4771 48.2212 24.3925 48.3904 24.2515C48.4186 24.2233 48.475 24.2233 48.5032 24.2515L48.8697 24.6463C48.8979 24.6745 48.8979 24.7309 48.8697 24.7591C48.5596 25.0693 48.1366 25.2103 47.7418 25.2103C46.8112 25.2103 46.0498 24.4771 46.0498 23.5183C46.0498 22.5595 46.783 21.8546 47.7418 21.8546Z" fill="white"/>
<path d="M49.7158 21.9674C49.7158 21.911 49.744 21.8828 49.8004 21.8828H50.9566C51.859 21.8828 52.5922 22.6159 52.5922 23.5183C52.5922 24.4207 51.859 25.1539 50.9566 25.1539H49.8004C49.744 25.1539 49.7158 25.1257 49.7158 25.0693V21.9674ZM50.9002 24.4771C51.436 24.4771 51.8026 24.0541 51.8026 23.5183C51.8026 22.9825 51.4078 22.5595 50.9002 22.5595H50.449V24.4489H50.9002V24.4771Z" fill="white"/>
<path d="M53.4663 21.9674C53.4663 21.911 53.5227 21.8828 53.5509 21.8828H54.1149C54.1713 21.8828 54.1995 21.911 54.1995 21.9674V23.1517H55.5531V21.9674C55.5531 21.911 55.5813 21.8828 55.6377 21.8828H56.2016C56.258 21.8828 56.2862 21.911 56.2862 21.9674V25.0693C56.2862 25.1257 56.2298 25.1539 56.2016 25.1539H55.6377C55.5813 25.1539 55.5531 25.1257 55.5531 25.0693V23.8285H54.1995V25.0693C54.1995 25.1257 54.1713 25.1539 54.1149 25.1539H53.5509C53.4945 25.1539 53.4663 25.1257 53.4663 25.0693V21.9674Z" fill="white"/>
<path d="M57.1885 24.7309L57.4141 24.3361C57.4423 24.2797 57.5551 24.2797 57.5833 24.3079C57.6115 24.3079 57.9499 24.5617 58.2601 24.5617C58.4575 24.5617 58.5703 24.4489 58.5703 24.2797C58.5703 24.0823 58.4011 23.9413 58.0909 23.8003C57.6961 23.6311 57.1885 23.3209 57.1885 22.7569C57.1885 22.3057 57.5551 21.8264 58.2601 21.8264C58.7395 21.8264 59.1343 22.0801 59.2753 22.1647C59.3317 22.1929 59.3317 22.2775 59.3035 22.3057L59.0779 22.6723C59.0497 22.7287 58.9651 22.7569 58.9087 22.7287C58.8523 22.7005 58.5139 22.4467 58.2319 22.4467C58.0627 22.4467 57.9499 22.5595 57.9499 22.7005C57.9499 22.8697 58.0909 23.0107 58.4575 23.1517C58.8241 23.2927 59.4163 23.5747 59.4163 24.2233C59.4163 24.7027 58.9933 25.1821 58.3165 25.1821C57.6961 25.1821 57.3577 24.9283 57.2449 24.8155C57.1603 24.8155 57.1321 24.7873 57.1885 24.7309Z" fill="white"/>
<path d="M50.646 3.97612C50.646 3.32754 51.1818 2.79175 51.8304 2.79175C52.479 2.79175 53.0147 3.32754 53.0147 3.97612C53.0147 4.62471 52.479 5.1605 51.8304 5.1605C51.1818 5.1605 50.646 4.62471 50.646 3.97612Z" fill="white"/>
<path d="M53.5791 9.89801C53.5791 10.2082 53.8328 10.462 54.143 10.462C54.4532 10.462 54.707 10.2082 54.707 9.89801V8.34704C54.707 6.73968 53.4099 5.4425 51.8025 5.4425C50.1951 5.4425 48.8979 6.73968 48.8979 8.34704V9.89801C48.8979 10.2082 49.1517 10.462 49.4619 10.462C49.7721 10.462 50.0259 10.2082 50.0259 9.89801V8.34704C50.0259 7.92405 50.1951 7.52926 50.4489 7.21907V15.7071C50.4489 16.0173 50.7027 16.2711 51.0129 16.2711C51.3231 16.2711 51.5769 16.0173 51.5769 15.7071V10.9132H51.9717V15.7071C51.9717 16.0173 52.2255 16.2711 52.5357 16.2711C52.8459 16.2711 53.0997 16.0173 53.0997 15.7071V7.21907C53.3535 7.52926 53.5227 7.92405 53.5227 8.34704V9.89801H53.5791Z" fill="white"/>
<path d="M47.7979 9.9544C48.1645 9.9544 48.4747 9.64421 48.4747 9.27762C48.4747 8.91102 48.1645 8.60083 47.7979 8.60083C47.4313 8.60083 47.1211 8.91102 47.1211 9.27762C47.1211 9.67241 47.4313 9.9544 47.7979 9.9544Z" fill="white"/>
<path d="M47.798 10.0954C46.8957 10.0954 46.1343 10.8286 46.1343 11.7592V12.6333C46.1343 12.8025 46.2753 12.9717 46.4727 12.9717C46.6701 12.9717 46.8111 12.8307 46.8111 12.6333V11.7592C46.8111 11.5054 46.8957 11.2798 47.0367 11.1106V15.9327C47.0367 16.1019 47.1777 16.2711 47.375 16.2711C47.5442 16.2711 47.7134 16.1301 47.7134 15.9327V13.2255H47.939V15.9327C47.939 16.1019 48.08 16.2711 48.2774 16.2711C48.4466 16.2711 48.6158 16.1301 48.6158 15.9327V11.1106C48.7568 11.2798 48.8414 11.5054 48.8414 11.7592V12.6333C48.8414 12.8025 48.9824 12.9717 49.1798 12.9717C49.349 12.9717 49.5182 12.8307 49.5182 12.6333V11.7592C49.4618 10.8568 48.7004 10.0954 47.798 10.0954Z" fill="white"/>
<path d="M57.2448 7.98042C57.7276 7.98042 58.119 7.58903 58.119 7.10624C58.119 6.62344 57.7276 6.23206 57.2448 6.23206C56.762 6.23206 56.3706 6.62344 56.3706 7.10624C56.3706 7.58903 56.762 7.98042 57.2448 7.98042Z" fill="white"/>
<path d="M60.657 13.7331C60.657 15.1431 59.529 16.2711 58.119 16.2711C56.709 16.2711 55.5811 15.1431 55.5811 13.7331C55.5811 13.1691 55.7785 12.6333 56.0887 12.2103C55.8913 12.2103 55.6093 12.1821 55.5247 12.1821C55.3837 12.1821 55.2709 12.3513 55.2709 12.6897C55.2427 13.0281 55.1581 13.9587 55.1581 14.2407C55.1581 14.5227 55.1299 14.7765 54.8479 14.7765C54.5659 14.7765 54.1993 14.7483 54.1147 14.7483C54.0301 14.7483 53.8891 14.8329 53.9173 15.0021C53.9455 15.1431 53.9737 15.2559 54.1711 15.3405C54.2557 15.1149 54.4531 14.9457 54.7351 14.9457C55.0453 14.9457 55.3273 15.1995 55.3273 15.5379C55.3273 15.8481 55.0735 16.1301 54.7351 16.1301C54.4531 16.1301 54.2275 15.9327 54.1711 15.6789C54.0583 15.6507 53.9455 15.6225 53.8609 15.5661C53.6917 15.4251 53.5789 15.2841 53.5789 14.7201C53.5789 14.7201 53.5507 14.2971 53.8327 14.2971C54.0301 14.2971 54.1711 14.2689 54.1711 14.0715C54.1711 13.8741 54.3403 12.1257 54.3967 11.7874C54.4249 11.449 54.6787 11.1388 55.2145 11.1388C55.5811 11.1388 56.1451 11.1106 56.4834 11.1106C56.6526 11.1106 56.7654 10.9696 56.7654 10.8286V8.93921C56.7654 8.62902 56.9346 8.34703 57.0756 8.26243C57.3858 8.03683 57.9498 8.03683 58.3446 8.45982C58.7112 8.88281 59.1342 9.4468 59.247 9.616C59.3598 9.78519 59.5008 10.0672 59.2752 10.4902C59.0496 10.9414 58.9086 11.1952 58.7676 11.4772C58.6266 11.7592 58.3446 12.1257 58.0908 11.9565C57.837 11.7874 57.8934 11.4772 58.0908 11.1106C58.2882 10.744 58.542 10.3492 58.542 10.18C58.542 10.0108 58.3164 9.5878 58.1754 9.86979C58.0626 10.0954 57.7242 10.8004 57.5268 11.2234C57.6114 11.1952 57.696 11.1952 57.7806 11.167C57.6114 11.5618 57.6678 11.8156 57.7806 11.9847C57.0192 12.1539 56.4552 12.8589 56.4552 13.6767C56.4552 14.6355 57.2448 15.4251 58.2036 15.4251C59.1624 15.4251 59.952 14.6355 59.952 13.6767C59.952 12.9153 59.4444 12.2385 58.7394 12.0129C58.8804 11.872 58.9932 11.7028 59.0496 11.5618C59.0778 11.4772 59.1342 11.3926 59.1906 11.308C60.0084 11.7874 60.657 12.6897 60.657 13.7331ZM54.5377 15.5943C54.5377 15.7071 54.6223 15.7917 54.7351 15.7917C54.8479 15.7917 54.9325 15.7071 54.9325 15.5943C54.9325 15.4815 54.8479 15.3969 54.7351 15.3969C54.6223 15.3969 54.5377 15.4815 54.5377 15.5943Z" fill="white"/>
<path d="M12.2667 22.7569C11.8438 22.2211 11.449 21.6571 11.1106 21.065C11.0824 21.0368 11.0542 21.0086 11.0542 20.9804C10.8004 20.501 10.5466 20.0498 10.3492 19.5422C10.2928 19.4012 10.2364 19.2602 10.18 19.091C9.4468 17.2298 9.13661 15.2841 9.22121 13.2819C9.334 11.0824 9.95439 9.05201 11.026 7.13445C11.026 7.10625 11.0542 7.07805 11.0542 7.04985C11.3644 6.57046 11.6464 6.09107 11.9847 5.63988C11.8156 5.35789 11.6746 5.07589 11.4772 4.7375C10.3774 2.76354 9.81339 1.83296 8.71362 0C7.61384 1.86116 7.04985 2.81994 5.95007 4.8221C4.8503 6.76786 4.28631 7.75484 3.21473 9.84159C4.11711 9.616 4.5683 9.5032 5.47068 9.3904C5.24509 9.95439 5.13229 10.2364 4.9067 10.8286C3.58132 13.4229 2.34055 16.1019 1.15618 18.7526C2.08676 18.4142 2.53795 18.2732 3.49673 18.0476C2.25595 20.924 1.12798 23.8003 0 26.7048C6.11927 24.5899 11.1106 24.5617 17.2298 26.6484C15.9609 26.0562 14.8047 25.2667 13.7049 24.2797C13.1691 23.8285 12.6897 23.2927 12.2667 22.7569Z" fill="#235E39"/>
<path d="M23.1798 7.27545C21.1495 7.27545 19.2601 8.17783 17.963 9.7288L17.9348 9.757C16.9478 10.9696 16.3838 12.4923 16.3838 14.0715C16.3838 14.1279 16.3838 14.2125 16.3838 14.2689L20.5009 10.6876L23.3208 13.1409L26.1408 10.6876L30.0041 14.0433C30.0041 13.1409 29.8349 12.2949 29.4683 11.4772C28.3967 8.91102 25.9434 7.27545 23.1798 7.27545Z" fill="#FFD200"/>
<path d="M10.998 7.16267C9.92643 9.05203 9.30605 11.1106 9.19325 13.3101C9.10865 15.3123 9.41884 17.2581 10.152 19.1192C10.2084 19.2602 10.2648 19.4294 10.3212 19.5704L15.6509 14.9175C15.6509 14.8329 15.6227 14.7201 15.6227 14.6355C15.6227 14.4663 15.5945 14.2971 15.5945 14.0997C15.5945 12.3514 16.2149 10.6312 17.3147 9.27762L17.3429 9.24942C18.781 7.52926 20.896 6.54228 23.152 6.54228C26.2257 6.54228 28.961 8.37524 30.1454 11.1952C32.0348 10.4338 33.8959 9.67241 35.7853 8.91103C35.8981 8.85463 35.9545 8.82643 35.8699 8.68543C35.6443 8.14965 35.3623 7.61386 35.1085 7.10627C35.0803 7.04987 35.0521 7.02167 35.0239 6.99347C32.486 2.90456 28.82 0.648604 24.0261 0.197413C22.6444 0.0846159 21.2908 0.197413 19.9372 0.507607C16.7507 1.26899 14.1281 2.90456 12.0978 5.4707C12.0414 5.5553 11.985 5.6117 11.9286 5.6963C11.5902 6.14749 11.28 6.62688 10.998 7.10627C11.0262 7.10627 10.998 7.13447 10.998 7.16267Z" fill="#C32032"/>
<path d="M20.5009 10.6594L16.3838 14.2689C16.3838 14.3817 16.3838 14.4663 16.412 14.5509C16.4966 15.6225 16.8068 16.6658 17.3708 17.5682C17.4836 17.7656 17.5964 17.9066 17.681 18.0194L23.3208 13.0845L20.5009 10.6594Z" fill="#7B863A"/>
<path d="M16.6939 18.0194C16.1299 17.0606 15.7633 15.9891 15.6505 14.9175L10.3208 19.5422C10.5464 20.0216 10.772 20.501 11.0258 20.9804C11.054 21.0086 11.0822 21.0368 11.0822 21.0649C11.4206 21.6571 11.8154 22.2211 12.2384 22.7569L12.4358 22.5877L17.0605 18.5552L17.0323 18.527C16.9477 18.386 16.8349 18.2168 16.6939 18.0194Z" fill="#6D3B5D"/>
<path d="M35.7567 19.1474C33.9237 18.386 32.0626 17.6528 30.2296 16.9196C30.0322 17.4272 29.7502 17.9348 29.44 18.386C28.0301 20.4445 25.6895 21.6571 23.208 21.6571C20.811 21.6571 18.5269 20.5009 17.0887 18.5552L12.464 22.5877L12.2666 22.7569C12.6896 23.2927 13.169 23.8003 13.7048 24.2797C14.8045 25.2666 15.9889 26.0562 17.2297 26.6484C18.9217 27.438 20.7546 27.861 22.7286 27.9456C24.1668 28.002 25.5767 27.8046 26.9585 27.4098C29.6656 26.6202 31.9216 25.1256 33.7545 22.9825C33.8673 22.8415 33.9801 22.7005 34.1211 22.5595C34.4877 22.0801 34.8261 21.5443 35.1645 21.0085C35.4465 20.5291 35.7003 20.0215 35.8977 19.514C35.9259 19.4576 35.9259 19.4294 35.9541 19.4012L35.9823 19.3448L35.9541 19.2884C35.8977 19.2038 35.8413 19.2038 35.7567 19.1474Z" fill="#232C67"/>
<path d="M23.3208 13.1127L28.7351 17.822L28.8197 17.8784C29.1017 17.4836 29.3273 17.0324 29.4965 16.6094C29.8349 15.7917 30.0041 14.9457 30.0041 14.0715C30.0041 14.0433 30.0041 14.0433 30.0041 14.0151L26.1407 10.6594L23.3208 13.1127Z" fill="#37657F"/>
<path d="M23.321 13.1127L17.6812 18.0476C17.6812 18.0476 17.6812 18.0758 17.7094 18.0758C18.9783 19.8242 21.0369 20.8676 23.2082 20.8676C25.436 20.8676 27.5227 19.7678 28.7917 17.9348L28.8199 17.9066L28.7353 17.8502L23.321 13.1127Z" fill="#232C67"/>
<path d="M31.4141 26.5075H31.1039C31.0757 26.5075 31.0757 26.4793 31.0757 26.4793V26.3101C31.0757 26.2819 31.1039 26.2819 31.1039 26.2819H31.9499C31.9781 26.2819 31.9781 26.3101 31.9781 26.3101V26.4793C31.9781 26.5075 31.9499 26.5075 31.9499 26.5075H31.6397V27.6072C31.6397 27.6354 31.6115 27.6354 31.6115 27.6354H31.4423C31.4141 27.6354 31.4141 27.6072 31.4141 27.6072V26.5075Z" fill="black"/>
<path d="M32.5138 26.2819C32.5138 26.2537 32.5138 26.2537 32.542 26.2537H32.5702C32.5984 26.2537 32.5984 26.2537 32.5984 26.2819L33.0214 27.2124L33.4444 26.2819L33.4726 26.2537H33.5008C33.529 26.2537 33.529 26.2537 33.529 26.2819L33.7546 27.6072C33.7546 27.6354 33.7546 27.6636 33.7264 27.6636H33.5572C33.529 27.6636 33.529 27.6354 33.529 27.6354L33.4162 26.9022L33.0778 27.6636L33.0496 27.6918H33.0214C32.9932 27.6918 32.9932 27.6918 32.9932 27.6636L32.6548 26.9022L32.542 27.6354L32.5138 27.6636H32.3446C32.3164 27.6636 32.3164 27.6354 32.3164 27.6072L32.5138 26.2819Z" fill="black"/>
</svg>
