<svg width="136" height="28" viewBox="0 0 136 28" fill="none" xmlns="http://www.w3.org/2000/svg">
<g clip-path="url(#clip0_9520_11885)">
<path d="M50.4229 5.76231C50.9705 5.76231 51.5181 5.96169 51.9309 6.33236C51.9492 6.35104 51.971 6.36588 51.9951 6.37601C52.0192 6.38614 52.0451 6.39136 52.0713 6.39136C52.0974 6.39136 52.1233 6.38614 52.1474 6.37601C52.1715 6.36588 52.1934 6.35104 52.2117 6.33236L53.0822 5.42814C53.1721 5.33828 53.1721 5.2063 53.071 5.11363C52.3128 4.42563 51.4872 4.07742 50.3695 4.07742C48.1342 4.07742 46.3398 5.87464 46.3398 8.10711C46.3398 10.3424 48.1371 12.1143 50.3695 12.1143C51.3636 12.1143 52.324 11.7689 53.0822 11.0304C53.1608 10.9518 53.1721 10.8085 53.0934 10.7271L52.2229 9.80042C52.1555 9.72179 52.0095 9.72179 51.9309 9.78919C51.5293 10.1346 50.9592 10.3255 50.4341 10.3255C49.1733 10.3255 48.2353 9.29776 48.2353 8.05656C48.2325 6.80975 49.162 5.76231 50.4229 5.76231ZM60.3019 4.07462C58.0695 4.07462 56.2947 5.87183 56.2947 8.10711C56.2947 10.3424 58.0695 12.1143 60.3019 12.1143C62.5344 12.1143 64.3204 10.3396 64.3204 8.10711C64.3232 5.87183 62.5372 4.07462 60.3019 4.07462ZM60.3019 10.3284C59.086 10.3284 58.0807 9.32304 58.0807 8.1043C58.0807 6.87714 59.086 5.86059 60.3019 5.86059C61.5319 5.86059 62.5344 6.87714 62.5344 8.1043C62.5372 9.32304 61.5319 10.3284 60.3019 10.3284ZM72.4949 10.362H69.8019V4.40036C69.8019 4.28523 69.7008 4.18694 69.5913 4.18694H68.2602C68.1367 4.18694 68.0496 4.28523 68.0496 4.40036V11.7914C68.0496 11.9037 68.1367 12.002 68.2602 12.002H72.4949C72.6185 12.002 72.7083 11.9009 72.7083 11.7914V10.5755C72.7083 10.4603 72.6185 10.362 72.4949 10.362ZM79.7905 4.07462C77.5552 4.07462 75.7804 5.87183 75.7804 8.10711C75.7804 10.3424 77.5552 12.1143 79.7905 12.1143C82.0257 12.1143 83.8117 10.3396 83.8117 8.10711C83.8089 5.87183 82.0257 4.07462 79.7905 4.07462ZM79.7905 10.3284C78.5717 10.3284 77.5692 9.32304 77.5692 8.1043C77.5692 6.87714 78.5745 5.86059 79.7905 5.86059C81.0204 5.86059 82.0257 6.87714 82.0257 8.1043C82.0257 9.32304 81.0176 10.3284 79.7905 10.3284ZM92.0985 8.84284C93.0702 8.4497 93.7497 7.62411 93.7497 6.59633C93.7497 5.26808 92.6546 4.18413 91.3179 4.18413H87.9762C87.8498 4.18413 87.7628 4.28242 87.7628 4.39474V11.7858C87.7628 11.8981 87.8498 11.9964 87.9762 11.9964H89.3044C89.414 11.9964 89.5179 11.8953 89.5179 11.7858V8.94394H90.2873L91.8823 11.9009C91.902 11.9458 91.9722 12.002 92.062 12.002H93.5447C93.7357 12.002 93.8115 11.8251 93.7357 11.6791L92.0985 8.84284ZM91.1719 7.52582H89.5179V5.78477H91.1719C91.6296 5.78477 92.0199 6.16387 92.0199 6.63283C92.0199 7.10179 91.6296 7.52582 91.1719 7.52582ZM111.767 4.18694H109.043C108.931 4.18694 108.841 4.28523 108.841 4.39755V11.7886C108.841 11.9009 108.931 11.9992 109.043 11.9992H111.767C113.921 11.9992 115.684 10.2469 115.684 8.07903C115.684 5.93922 113.921 4.18694 111.767 4.18694ZM111.654 10.3508H110.582V5.82971H111.654C112.915 5.82971 113.831 6.82098 113.831 8.08464C113.834 9.35673 112.915 10.3508 111.654 10.3508ZM123.193 4.07462C120.958 4.07462 119.183 5.87183 119.183 8.10711C119.183 10.3424 120.958 12.1143 123.193 12.1143C125.426 12.1143 127.212 10.3396 127.212 8.10711C127.212 5.87183 125.426 4.07462 123.193 4.07462ZM123.193 10.3284C121.974 10.3284 120.969 9.32304 120.969 8.1043C120.969 6.87714 121.974 5.86059 123.193 5.86059C124.42 5.86059 125.426 6.87714 125.426 8.1043C125.426 9.32304 124.42 10.3284 123.193 10.3284ZM101.461 4.19817C101.427 4.13078 101.351 4.07462 101.273 4.07462H101.16C101.082 4.07462 101.003 4.13078 100.969 4.19817L97.4733 11.71C97.4031 11.856 97.4958 12.002 97.6615 12.002H98.8886C99.1105 12.002 99.2116 11.9346 99.2902 11.7352L99.6918 10.8422H102.736L103.137 11.724C103.252 11.9655 103.297 12.002 103.528 12.002H104.766C104.935 12.002 105.024 11.8588 104.957 11.71L101.461 4.19817ZM100.194 9.5168L101.211 7.17761L102.239 9.5168H100.194Z" fill="black"/>
<path d="M49.0668 18.3709C50.659 18.3709 51.8553 19.5756 51.8553 21.1144C51.8553 22.6982 50.659 23.9338 49.0668 23.9338C47.4746 23.9338 46.2783 22.6982 46.2783 21.1144C46.2783 19.5756 47.4746 18.3709 49.0668 18.3709ZM49.0668 23.0633C50.0384 23.0633 50.8331 22.2208 50.8331 21.1144C50.8331 20.053 50.0384 19.2414 49.0668 19.2414C48.0952 19.2414 47.3005 20.053 47.3005 21.1144C47.3005 22.2237 48.098 23.0633 49.0668 23.0633ZM52.4506 23.1251H53.0122V20.6988H52.4141V19.9799H53.0122V19.8058C53.0122 18.5562 54.0119 18.3962 54.5286 18.3962C54.7561 18.3962 54.9218 18.427 54.9218 18.427V19.1993C54.9218 19.1993 54.8235 19.1768 54.6269 19.1768C54.4079 19.1768 53.9754 19.2217 53.9754 19.7834V19.9799H55.7333V19.8058C55.7333 18.5562 56.7274 18.3962 57.2413 18.3962C57.4772 18.3962 57.6429 18.427 57.6429 18.427V19.1993C57.6429 19.1993 57.5446 19.1768 57.348 19.1768C57.129 19.1768 56.6881 19.2217 56.6881 19.7834V19.9799H59.4092V23.1251H59.9708V23.844H57.8872V23.1251H58.4488V20.6988H56.6909V23.1251H57.3508V23.844H55.1745V23.1251H55.7361V20.6988H53.9783V23.1251H54.6297V23.844H52.4534V23.1251H52.4506ZM58.4376 18.4635H59.4148V19.32H58.4376V18.4635ZM62.4504 19.8873C63.0935 19.8873 64.0342 20.1288 64.0342 20.8112V21.3419H63.2002V21.0835C63.2002 20.8252 62.8071 20.7044 62.4813 20.7044C61.7765 20.7044 61.344 21.1903 61.344 21.8951C61.344 22.6898 61.8972 23.1223 62.5571 23.1223C63.1019 23.1223 63.5512 22.819 63.7618 22.6533L64.1016 23.3357C63.8348 23.5856 63.2367 23.9338 62.501 23.9338C61.3721 23.9338 60.3724 23.1672 60.3724 21.9176C60.3724 20.7662 61.2598 19.8873 62.4504 19.8873ZM64.6183 23.1251H65.1799V20.6988H64.5818V19.9799H66.1431V23.1251H66.6963V23.844H64.6183V23.1251ZM65.1715 18.4635H66.1431V19.32H65.1715V18.4635ZM69.2349 21.457H69.4764V21.3279C69.4764 20.8364 69.1647 20.6595 68.7631 20.6595C68.1875 20.6595 67.6708 21.0302 67.6708 21.0302L67.3141 20.3619C67.3141 20.3619 67.9123 19.8845 68.8446 19.8845C69.8836 19.8845 70.4368 20.4236 70.4368 21.4065V22.9538C70.4368 23.0689 70.4986 23.1195 70.6025 23.1195H70.9507V23.8383H70.0408C69.6842 23.8383 69.5494 23.6502 69.5494 23.4283V23.3834C69.5494 23.2627 69.5719 23.1868 69.5719 23.1868H69.5578C69.5578 23.1868 69.2321 23.931 68.3363 23.931C67.6764 23.931 67.0558 23.5435 67.0558 22.7572C67.0614 21.5778 68.6143 21.457 69.2349 21.457ZM68.5918 23.2149C69.1141 23.2149 69.4848 22.6533 69.4848 22.1675V22.0383H69.3248C68.9457 22.0383 68.0274 22.1001 68.0274 22.6814C68.0302 22.9734 68.2352 23.2149 68.5918 23.2149ZM71.6246 19.1824H71.0265V18.4635H72.5794V22.5578C72.5794 22.906 72.6552 23.0886 72.9725 23.0886C73.0792 23.0886 73.1551 23.0801 73.1551 23.0801V23.8524C73.1551 23.8524 72.995 23.8748 72.8069 23.8748C72.1919 23.8748 71.6246 23.6698 71.6246 22.6168V19.1824ZM76.4013 22.1085V22.5101C76.4013 22.8583 76.8422 23.0633 77.3476 23.0633C77.8924 23.0633 78.2799 22.8274 78.2799 22.395C78.2799 21.8502 77.6649 21.6761 77.0443 21.4318C76.3255 21.1594 75.6206 20.8336 75.6206 19.8704C75.6206 18.7865 76.4996 18.3709 77.4234 18.3709C78.2715 18.3709 79.128 18.6966 79.128 19.32V20.0249H78.2266V19.6598C78.2266 19.3874 77.825 19.2442 77.4234 19.2442C76.9826 19.2442 76.6203 19.4267 76.6203 19.8367C76.6203 20.3282 77.1202 20.5051 77.6818 20.7157C78.4849 21.0049 79.2881 21.3222 79.2881 22.3304C79.2881 23.4283 78.3642 23.9366 77.3476 23.9366C76.4518 23.9366 75.4971 23.5351 75.4971 22.7235V22.1085H76.4013ZM80.313 20.6988H79.7205V19.9799H80.3411V18.9269H81.2734V19.9799H82.1524V20.6988H81.2734V22.3276C81.2734 22.9875 81.7733 23.0773 82.0457 23.0773C82.1524 23.0773 82.2198 23.0689 82.2198 23.0689V23.858C82.2198 23.858 82.099 23.8805 81.9249 23.8805C81.3801 23.8805 80.3102 23.7204 80.3102 22.4258V20.6988H80.313ZM84.7724 21.457H85.0139V21.3279C85.0139 20.8364 84.7022 20.6595 84.3006 20.6595C83.7249 20.6595 83.2082 21.0302 83.2082 21.0302L82.8516 20.3619C82.8516 20.3619 83.4497 19.8845 84.382 19.8845C85.421 19.8845 85.9742 20.4236 85.9742 21.4065V22.9538C85.9742 23.0689 86.036 23.1195 86.1399 23.1195H86.4909V23.8383H85.5811C85.2245 23.8383 85.0897 23.6502 85.0897 23.4283V23.3834C85.0897 23.2627 85.1121 23.1868 85.1121 23.1868H85.0981C85.0981 23.1868 84.7724 23.931 83.8766 23.931C83.2166 23.931 82.596 23.5435 82.596 22.7572C82.596 21.5778 84.1489 21.457 84.7724 21.457ZM84.1265 23.2149C84.6488 23.2149 85.0223 22.6533 85.0223 22.1675V22.0383H84.8622C84.4831 22.0383 83.5648 22.1001 83.5648 22.6814C83.5648 22.9734 83.7698 23.2149 84.1265 23.2149ZM87.3334 20.6988H86.7409V19.9799H87.3615V18.9269H88.2938V19.9799H89.1727V20.6988H88.2938V22.3276C88.2938 22.9875 88.7936 23.0773 89.066 23.0773C89.1727 23.0773 89.2401 23.0689 89.2401 23.0689V23.858C89.2401 23.858 89.1194 23.8805 88.9453 23.8805C88.4005 23.8805 87.3306 23.7204 87.3306 22.4258V20.6988H87.3334ZM91.6326 19.8873C92.7475 19.8873 93.354 20.6988 93.354 21.721C93.354 21.8333 93.3316 22.0467 93.3316 22.0467H90.6554C90.7172 22.76 91.2311 23.1223 91.8152 23.1223C92.4442 23.1223 92.9384 22.7123 92.9384 22.7123L93.3091 23.3946C93.3091 23.3946 92.7166 23.9338 91.7478 23.9338C90.4673 23.9338 89.6698 23.0099 89.6698 21.9091C89.6698 20.7213 90.4729 19.8873 91.6326 19.8873ZM92.36 21.4795C92.3459 20.9488 92.0202 20.6314 91.6102 20.6314C91.1188 20.6314 90.7677 20.9712 90.6779 21.4795H92.36ZM95.4854 18.4635H97.5859V19.2133H96.9569L97.6533 22.2826C97.6982 22.5017 97.7151 22.7516 97.7151 22.7516H97.746C97.746 22.7516 97.7684 22.5017 97.8302 22.2826L98.8383 18.4635H99.633L100.641 22.2826C100.703 22.5017 100.725 22.7516 100.725 22.7516H100.756C100.756 22.7516 100.77 22.5017 100.818 22.2826L101.515 19.2133H100.885V18.4635H102.986V19.2133H102.495L101.349 23.844H100.234L99.3326 20.4489C99.2708 20.2299 99.2483 19.9575 99.2483 19.9575H99.2259C99.2259 19.9575 99.2034 20.2299 99.1416 20.4489L98.2402 23.844H97.1254L95.9797 19.2133H95.4882V18.4635H95.4854ZM105.241 19.8873C106.356 19.8873 106.962 20.6988 106.962 21.721C106.962 21.8333 106.94 22.0467 106.94 22.0467H104.264C104.325 22.76 104.839 23.1223 105.423 23.1223C106.052 23.1223 106.547 22.7123 106.547 22.7123L106.917 23.3946C106.917 23.3946 106.325 23.9338 105.356 23.9338C104.076 23.9338 103.278 23.0099 103.278 21.9091C103.278 20.7213 104.084 19.8873 105.241 19.8873ZM105.971 21.4795C105.957 20.9488 105.631 20.6314 105.221 20.6314C104.73 20.6314 104.379 20.9712 104.289 21.4795H105.971ZM107.768 19.1824H107.176V18.4635H108.729V20.14C108.729 20.3282 108.715 20.4658 108.715 20.4658H108.729C108.729 20.4658 109.077 19.8901 109.888 19.8901C110.933 19.8901 111.61 20.7157 111.61 21.9148C111.61 23.1419 110.852 23.9394 109.829 23.9394C108.987 23.9394 108.678 23.3244 108.678 23.3244H108.664C108.664 23.3244 108.678 23.462 108.678 23.6137V23.8496H107.768V19.1824ZM109.664 23.1251C110.194 23.1251 110.641 22.6926 110.641 21.9288C110.641 21.1931 110.248 20.7157 109.678 20.7157C109.178 20.7157 108.706 21.0807 108.706 21.9372C108.706 22.5326 109.018 23.1251 109.664 23.1251ZM114.008 23.1026H114.651V19.2133H114.008V18.4635H116.586C116.903 18.4635 117.229 18.486 117.496 18.6011C118.08 18.8426 118.459 19.4436 118.459 20.1934C118.459 20.96 118.057 21.6115 117.437 21.8305C117.187 21.9148 116.914 21.9372 116.611 21.9372H115.648V23.1054H116.299V23.8496H114.011V23.1026H114.008ZM116.479 21.1369C116.707 21.1369 116.872 21.106 117.024 21.0302C117.313 20.887 117.465 20.5837 117.465 20.1877C117.465 19.8171 117.322 19.5278 117.072 19.3846C116.92 19.2948 116.732 19.2554 116.488 19.2554H115.645V21.1341H116.479V21.1369ZM120.961 19.8873C122.143 19.8873 123.089 20.7297 123.089 21.9119C123.089 23.1026 122.143 23.9366 120.967 23.9366C119.784 23.9366 118.838 23.1026 118.838 21.9119C118.838 20.7297 119.784 19.8873 120.961 19.8873ZM120.967 23.1166C121.587 23.1166 122.112 22.6308 122.112 21.9119C122.112 21.1987 121.59 20.7073 120.967 20.7073C120.337 20.7073 119.815 21.1987 119.815 21.9119C119.815 22.6308 120.337 23.1166 120.967 23.1166ZM123.62 23.1251H124.182V20.8645C124.182 20.7578 124.12 20.6988 124.016 20.6988H123.584V19.9799H124.592C124.932 19.9799 125.109 20.1232 125.109 20.4489V20.6764C125.109 20.8196 125.094 20.9179 125.094 20.9179H125.109C125.283 20.3647 125.746 19.9238 126.336 19.9238C126.426 19.9238 126.51 19.9378 126.51 19.9378V20.8842C126.51 20.8842 126.412 20.8701 126.274 20.8701C125.493 20.8701 125.145 21.5525 125.145 22.2798V23.1223H125.698V23.8411H123.62V23.1251ZM127.313 20.6988H126.72V19.9799H127.341V18.9269H128.273V19.9799H129.152V20.6988H128.273V22.3276C128.273 22.9875 128.773 23.0773 129.046 23.0773C129.152 23.0773 129.22 23.0689 129.22 23.0689V23.858C129.22 23.858 129.099 23.8805 128.925 23.8805C128.38 23.8805 127.31 23.7204 127.31 22.4258V20.6988H127.313ZM131.772 21.457H132.014V21.3279C132.014 20.8364 131.702 20.6595 131.3 20.6595C130.725 20.6595 130.208 21.0302 130.208 21.0302L129.851 20.3619C129.851 20.3619 130.45 19.8845 131.382 19.8845C132.421 19.8845 132.974 20.4236 132.974 21.4065V22.9538C132.974 23.0689 133.036 23.1195 133.14 23.1195H133.488V23.8383H132.578C132.222 23.8383 132.087 23.6502 132.087 23.4283V23.3834C132.087 23.2627 132.109 23.1868 132.109 23.1868H132.095C132.095 23.1868 131.769 23.931 130.874 23.931C130.214 23.931 129.593 23.5435 129.593 22.7572C129.596 21.5778 131.149 21.457 131.772 21.457ZM131.126 23.2149C131.649 23.2149 132.022 22.6533 132.022 22.1675V22.0383H131.862C131.483 22.0383 130.565 22.1001 130.565 22.6814C130.568 22.9734 130.77 23.2149 131.126 23.2149ZM134.159 19.1824H133.561V18.4635H135.114V22.5578C135.114 22.906 135.19 23.0886 135.507 23.0886C135.614 23.0886 135.69 23.0801 135.69 23.0801V23.8524C135.69 23.8524 135.53 23.8748 135.341 23.8748C134.726 23.8748 134.159 23.6698 134.159 22.6168V19.1824Z" fill="black"/>
<path d="M41.4761 0.0308838H41.8411V27.8315H41.4761V0.0308838Z" fill="black"/>
<path d="M23.3917 12.763L26.2195 10.3003L30.0694 13.6672C30.0245 12.9034 29.8532 12.1649 29.5584 11.4628C29.0434 10.2175 28.1699 9.15336 27.049 8.40539C25.928 7.65742 24.6101 7.2594 23.2625 7.26185C21.2294 7.26185 19.3199 8.15765 18.0197 9.71898L17.986 9.75829C17.0284 10.9209 16.4836 12.3923 16.4443 13.9115L20.5751 10.3003L23.3917 12.763Z" fill="black"/>
<path d="M15.6496 14.0885C15.6496 12.3249 16.2674 10.6064 17.3878 9.24722L17.4244 9.20791C18.8621 7.47809 20.9935 6.4812 23.2597 6.4812C26.343 6.4812 29.0978 8.31773 30.28 11.1624C30.28 11.1624 30.28 11.1652 30.2828 11.1652C32.1699 10.4014 34.0514 9.64036 35.9384 8.88216C36.0648 8.82881 36.1013 8.7923 36.0367 8.64909C35.8065 8.11273 35.5369 7.5848 35.2589 7.06529C35.2336 7.02036 35.2055 6.97543 35.1774 6.93893C32.6304 2.84185 28.9518 0.570057 24.147 0.123562C22.7682 -0.00280421 21.4007 0.123562 20.05 0.443691C16.8571 1.19627 14.2343 2.8615 12.1872 5.42815C12.1282 5.50397 12.072 5.58259 12.0131 5.65841C11.6733 6.11052 11.3672 6.58229 11.0667 7.06529C11.0499 7.09338 11.0414 7.12707 11.033 7.15515C9.94907 9.06188 9.33971 11.1174 9.22457 13.3106C9.12629 15.324 9.4408 17.2645 10.1737 19.1431C10.199 19.2077 10.2243 19.2695 10.2495 19.3313L15.6693 14.5883C15.658 14.4339 15.6496 14.2682 15.6496 14.0885Z" fill="black"/>
<path d="M16.4616 14.6417C16.5458 15.6891 16.8744 16.7141 17.4163 17.6127C17.4697 17.6969 17.5174 17.7727 17.5624 17.8401L22.9652 13.1337L20.5755 11.0444L16.4616 14.6417ZM16.7564 18.0367C16.2443 17.1867 15.9019 16.2455 15.7483 15.2651L10.4858 19.8704C10.6656 20.2608 10.8593 20.6455 11.0671 21.0218C11.0868 21.0498 11.1121 21.0835 11.1317 21.1116C11.435 21.6255 11.772 22.1113 12.1314 22.5775L16.9698 18.3625C16.8996 18.2642 16.8294 18.1603 16.7564 18.0367ZM35.8658 19.1796C34.0153 18.4299 32.1647 17.6857 30.3113 16.9387V16.9415C30.1063 17.4554 29.8368 17.9525 29.5138 18.4158C28.8142 19.4282 27.8795 20.2558 26.7897 20.8275C25.7 21.3993 24.4879 21.6982 23.2573 21.6985C20.9377 21.6985 18.7362 20.6258 17.3012 18.8146L12.4768 23.0184C12.8643 23.4817 13.2799 23.9226 13.7321 24.3326C14.83 25.3238 16.0123 26.1129 17.2731 26.7026C18.972 27.4945 20.8142 27.927 22.8024 27.9916C24.2429 28.0449 25.6582 27.8568 27.0455 27.4468C29.7553 26.6493 32.0271 25.1638 33.8608 23.0071C33.9816 22.8639 34.0995 22.7179 34.2147 22.5691C34.5909 22.0776 34.9335 21.5581 35.2565 21.0218C35.5261 20.5303 35.7844 20.0305 36.0006 19.511C36.0175 19.4576 36.0343 19.4211 36.0456 19.393L36.0624 19.3481L36.0456 19.2779C36.0175 19.2414 35.9641 19.2246 35.8658 19.1796Z" fill="black"/>
<path d="M23.8187 13.1365L29.0446 17.7025C29.2581 17.3628 29.4406 17.0117 29.5866 16.6439C29.8758 15.9334 30.0331 15.1808 30.0696 14.4086L26.2168 11.0444L23.8187 13.1365ZM17.8935 18.2979C19.1824 19.9378 21.1678 20.9122 23.2599 20.9122C25.4137 20.9122 27.4356 19.8901 28.7217 18.1687L23.389 13.5072L17.8935 18.2979ZM8.63504 14.0239C8.63504 10.6653 9.78357 7.57356 11.7072 5.11082C11.6426 4.99569 11.578 4.87775 11.5078 4.75419C10.3957 2.78287 9.83693 1.83091 8.72209 0C7.60726 1.86461 7.04844 2.83061 5.93922 4.83562C4.83001 6.77324 4.2768 7.77856 3.18724 9.85939C4.08304 9.62632 4.53796 9.53365 5.45061 9.39605C5.21753 9.9661 5.1024 10.2525 4.87213 10.8282C3.5523 13.4454 2.29706 16.1047 1.11483 18.7865C2.04152 18.4439 2.51329 18.3007 3.46525 18.0648C2.27179 20.9516 1.12045 23.8411 0 26.756C5.34109 24.9139 9.83412 24.6555 14.9646 26.0034C11.1455 23.3862 8.63504 18.9943 8.63504 14.0239Z" fill="black"/>
<path d="M31.3474 26.3769H31.0497C31.0272 26.3769 31.0132 26.36 31.0132 26.3404V26.1803C31.0132 26.1607 31.03 26.1438 31.0497 26.1438H31.9006C31.923 26.1438 31.9371 26.1607 31.9371 26.1803V26.3404C31.9371 26.36 31.9202 26.3769 31.9006 26.3769H31.6029V27.4721C31.6029 27.4917 31.586 27.5086 31.5664 27.5086H31.3867C31.367 27.5086 31.3502 27.4917 31.3502 27.4721V26.3769H31.3474ZM32.4538 26.155C32.4566 26.1382 32.4678 26.127 32.4875 26.127H32.5183C32.5352 26.127 32.5464 26.1354 32.552 26.1466L32.9817 27.0677H32.9873L33.417 26.1438C33.4226 26.1326 33.431 26.1241 33.4507 26.1241H33.4815C33.504 26.1241 33.5152 26.1382 33.5152 26.1522L33.7455 27.4608C33.7511 27.4889 33.7371 27.5058 33.7118 27.5058H33.5349C33.518 27.5058 33.5012 27.4889 33.4984 27.4777L33.3833 26.7391H33.3776L33.0379 27.5058C33.035 27.517 33.0238 27.5282 33.0042 27.5282H32.9705C32.9632 27.5286 32.9559 27.5267 32.9499 27.5226C32.9438 27.5186 32.9392 27.5126 32.9368 27.5058L32.5914 26.7391H32.5857L32.4734 27.4777C32.4706 27.4917 32.4566 27.5058 32.4397 27.5058H32.2656C32.2403 27.5058 32.2235 27.4889 32.2291 27.4608L32.4538 26.155Z" fill="black"/>
</g>
<defs>
<clipPath id="clip0_9520_11885">
<rect width="135.692" height="28" fill="white"/>
</clipPath>
</defs>
</svg>
