<svg width="16" height="16" viewBox="0 0 16 16" fill="none" xmlns="http://www.w3.org/2000/svg">
<path d="M10.05 12.6334L9.48332 14.25C9.43888 14.3723 9.3611 14.4723 9.24999 14.55C9.13888 14.6278 9.01666 14.6667 8.88332 14.6667C8.6611 14.6667 8.48055 14.575 8.34166 14.3917C8.20277 14.2084 8.17777 14.0056 8.26666 13.7834L10.8 7.08337C10.8555 6.96115 10.9389 6.86115 11.05 6.78337C11.1611 6.7056 11.2833 6.66671 11.4167 6.66671H11.9167C12.05 6.66671 12.1722 6.7056 12.2833 6.78337C12.3944 6.86115 12.4778 6.96115 12.5333 7.08337L15.0667 13.8C15.1555 14.0112 15.1333 14.2084 15 14.3917C14.8667 14.575 14.6889 14.6667 14.4667 14.6667C14.3222 14.6667 14.1972 14.6278 14.0917 14.55C13.9861 14.4723 13.9055 14.3667 13.85 14.2334L13.2833 12.6334H10.05ZM6.03332 9.31671L3.13332 12.2C3.0111 12.3223 2.85832 12.3862 2.67499 12.3917C2.49166 12.3973 2.33332 12.3334 2.19999 12.2C2.07777 12.0778 2.01666 11.9223 2.01666 11.7334C2.01666 11.5445 2.07777 11.3889 2.19999 11.2667L5.09999 8.36671C4.7111 7.97782 4.35832 7.53337 4.04166 7.03337C3.72499 6.53337 3.43332 5.96671 3.16666 5.33337H4.56666C4.78888 5.76671 5.0111 6.14448 5.23332 6.46671C5.45555 6.78893 5.72221 7.11115 6.03332 7.43337C6.39999 7.06671 6.78055 6.55282 7.17499 5.89171C7.56943 5.2306 7.86666 4.60004 8.06666 4.00004H1.33332C1.14443 4.00004 0.986101 3.93615 0.858323 3.80837C0.730545 3.6806 0.666656 3.52226 0.666656 3.33337C0.666656 3.14448 0.730545 2.98615 0.858323 2.85837C0.986101 2.7306 1.14443 2.66671 1.33332 2.66671H5.33332V2.00004C5.33332 1.81115 5.39721 1.65282 5.52499 1.52504C5.65277 1.39726 5.8111 1.33337 5.99999 1.33337C6.18888 1.33337 6.34721 1.39726 6.47499 1.52504C6.60277 1.65282 6.66666 1.81115 6.66666 2.00004V2.66671H10.6667C10.8555 2.66671 11.0139 2.7306 11.1417 2.85837C11.2694 2.98615 11.3333 3.14448 11.3333 3.33337C11.3333 3.52226 11.2694 3.6806 11.1417 3.80837C11.0139 3.93615 10.8555 4.00004 10.6667 4.00004H9.39999C9.16666 4.80004 8.81666 5.62226 8.34999 6.46671C7.88332 7.31115 7.42221 7.9556 6.96666 8.40004L8.56666 10.0334L8.06666 11.4L6.03332 9.31671ZM10.4667 11.4667H12.8667L11.6667 8.06671L10.4667 11.4667Z" fill="#1B1B1B"/>
</svg>
